%TF.GenerationSoftware,KiCad,Pcbnew,4.0.5+dfsg1-4*%
%TF.CreationDate,2019-06-07T17:57:55-04:00*%
%TF.ProjectId,u2f,7532662E6B696361645F706362000000,rev?*%
%TF.FileFunction,Legend,Top*%
%FSLAX46Y46*%
G04 Gerber Fmt 4.6, Leading zero omitted, Abs format (unit mm)*
G04 Created by KiCad (PCBNEW 4.0.5+dfsg1-4) date Fri Jun  7 17:57:55 2019*
%MOMM*%
%LPD*%
G01*
G04 APERTURE LIST*
%ADD10C,0.100000*%
%ADD11C,0.150000*%
G04 APERTURE END LIST*
D10*
D11*
X142867000Y-99099000D02*
X141867000Y-99099000D01*
X141867000Y-100799000D02*
X142867000Y-100799000D01*
X140386000Y-107430000D02*
X143086000Y-107430000D01*
X140386000Y-105930000D02*
X143086000Y-105930000D01*
X141886000Y-106830000D02*
X141886000Y-106580000D01*
X141886000Y-106580000D02*
X141736000Y-106730000D01*
X141636000Y-106330000D02*
X141636000Y-107030000D01*
X141986000Y-106680000D02*
X142336000Y-106680000D01*
X141636000Y-106680000D02*
X141986000Y-106330000D01*
X141986000Y-106330000D02*
X141986000Y-107030000D01*
X141986000Y-107030000D02*
X141636000Y-106680000D01*
X143094000Y-110603000D02*
X141894000Y-110603000D01*
X141894000Y-108853000D02*
X143094000Y-108853000D01*
X142840000Y-104507000D02*
X141640000Y-104507000D01*
X141640000Y-102757000D02*
X142840000Y-102757000D01*
X147127000Y-107844000D02*
X151577000Y-107844000D01*
X145602000Y-100944000D02*
X151577000Y-100944000D01*
X137120334Y-100052143D02*
X137072715Y-100099762D01*
X136929858Y-100147381D01*
X136834620Y-100147381D01*
X136691762Y-100099762D01*
X136596524Y-100004524D01*
X136548905Y-99909286D01*
X136501286Y-99718810D01*
X136501286Y-99575952D01*
X136548905Y-99385476D01*
X136596524Y-99290238D01*
X136691762Y-99195000D01*
X136834620Y-99147381D01*
X136929858Y-99147381D01*
X137072715Y-99195000D01*
X137120334Y-99242619D01*
X138072715Y-100147381D02*
X137501286Y-100147381D01*
X137787000Y-100147381D02*
X137787000Y-99147381D01*
X137691762Y-99290238D01*
X137596524Y-99385476D01*
X137501286Y-99433095D01*
X135151905Y-107386381D02*
X135151905Y-106386381D01*
X135390000Y-106386381D01*
X135532858Y-106434000D01*
X135628096Y-106529238D01*
X135675715Y-106624476D01*
X135723334Y-106814952D01*
X135723334Y-106957810D01*
X135675715Y-107148286D01*
X135628096Y-107243524D01*
X135532858Y-107338762D01*
X135390000Y-107386381D01*
X135151905Y-107386381D01*
X136675715Y-107386381D02*
X136104286Y-107386381D01*
X136390000Y-107386381D02*
X136390000Y-106386381D01*
X136294762Y-106529238D01*
X136199524Y-106624476D01*
X136104286Y-106672095D01*
X136739334Y-110434381D02*
X136406000Y-109958190D01*
X136167905Y-110434381D02*
X136167905Y-109434381D01*
X136548858Y-109434381D01*
X136644096Y-109482000D01*
X136691715Y-109529619D01*
X136739334Y-109624857D01*
X136739334Y-109767714D01*
X136691715Y-109862952D01*
X136644096Y-109910571D01*
X136548858Y-109958190D01*
X136167905Y-109958190D01*
X137691715Y-110434381D02*
X137120286Y-110434381D01*
X137406000Y-110434381D02*
X137406000Y-109434381D01*
X137310762Y-109577238D01*
X137215524Y-109672476D01*
X137120286Y-109720095D01*
X136739334Y-104338381D02*
X136406000Y-103862190D01*
X136167905Y-104338381D02*
X136167905Y-103338381D01*
X136548858Y-103338381D01*
X136644096Y-103386000D01*
X136691715Y-103433619D01*
X136739334Y-103528857D01*
X136739334Y-103671714D01*
X136691715Y-103766952D01*
X136644096Y-103814571D01*
X136548858Y-103862190D01*
X136167905Y-103862190D01*
X137120286Y-103433619D02*
X137167905Y-103386000D01*
X137263143Y-103338381D01*
X137501239Y-103338381D01*
X137596477Y-103386000D01*
X137644096Y-103433619D01*
X137691715Y-103528857D01*
X137691715Y-103624095D01*
X137644096Y-103766952D01*
X137072667Y-104338381D01*
X137691715Y-104338381D01*
X148590095Y-99546381D02*
X148590095Y-100355905D01*
X148637714Y-100451143D01*
X148685333Y-100498762D01*
X148780571Y-100546381D01*
X148971048Y-100546381D01*
X149066286Y-100498762D01*
X149113905Y-100451143D01*
X149161524Y-100355905D01*
X149161524Y-99546381D01*
X150161524Y-100546381D02*
X149590095Y-100546381D01*
X149875809Y-100546381D02*
X149875809Y-99546381D01*
X149780571Y-99689238D01*
X149685333Y-99784476D01*
X149590095Y-99832095D01*
M02*
